<?xml version="1.0" standalone="no"?>
<!DOCTYPE svg PUBLIC "-//W3C//DTD SVG 20010904//EN"
 "http://www.w3.org/TR/2001/REC-SVG-20010904/DTD/svg10.dtd">
<svg version="1.0" xmlns="http://www.w3.org/2000/svg"
 width="1040.000000pt" height="1220.000000pt" viewBox="0 0 1040.000000 1220.000000"
 preserveAspectRatio="xMidYMid meet">

<g transform="translate(0.000000,1220.000000) scale(0.100000,-0.100000)"
fill="#000000" stroke="none">
<path d="M5353 11352 c-75 -40 -101 -119 -64 -194 23 -49 61 -74 151 -103 30
-10 104 -45 165 -79 232 -130 432 -388 469 -606 l6 -35 -63 65 c-90 94 -142
134 -233 178 -82 41 -204 82 -244 82 -35 0 -87 -37 -99 -72 -37 -107 9 -157
221 -238 113 -43 320 -186 401 -276 51 -57 107 -154 124 -218 29 -102 46 -91
142 94 173 336 224 656 137 855 -19 42 -32 56 -68 73 -36 18 -50 20 -80 11
-47 -12 -78 -51 -78 -97 0 -19 13 -73 30 -121 36 -107 50 -234 38 -360 -17
-173 -41 -184 -63 -30 -40 283 -121 515 -245 700 -66 98 -222 246 -312 296
-88 49 -217 93 -268 93 -19 -1 -49 -9 -67 -18z"/>
<path d="M4683 11210 c-61 -14 -124 -65 -154 -122 -13 -26 -19 -58 -19 -105 0
-61 4 -74 35 -120 19 -29 52 -61 74 -74 22 -12 45 -35 52 -51 15 -36 1 -73
-82 -223 -107 -193 -212 -323 -349 -434 -263 -212 -527 -316 -966 -380 -193
-29 -324 -28 -324 1 0 15 129 146 176 178 60 42 230 124 309 150 39 12 88 29
110 36 23 8 50 14 61 14 11 0 29 6 40 14 16 13 17 18 7 35 -12 19 -10 21 25
26 20 4 75 17 122 30 108 30 364 153 368 178 5 25 -14 22 -151 -22 -108 -35
-380 -110 -477 -131 -146 -32 -346 -102 -450 -157 -183 -98 -292 -227 -361
-427 -35 -98 -40 -230 -12 -312 49 -148 223 -310 344 -322 45 -4 51 -2 84 31
61 61 46 124 -43 183 -31 20 -77 59 -103 85 -51 52 -103 146 -97 176 4 22 38
28 248 43 309 21 570 72 746 145 97 40 94 40 94 21 0 -49 -662 -712 -928 -929
-26 -21 -69 -57 -97 -81 -288 -248 -717 -574 -1105 -841 -150 -103 -157 -110
-141 -128 34 -41 162 -47 232 -12 19 10 77 52 130 94 53 42 113 90 134 106
158 123 390 314 535 440 95 83 207 177 249 210 l76 59 -72 -79 c-130 -145
-396 -394 -708 -664 -17 -14 -62 -53 -100 -86 -39 -34 -89 -76 -112 -94 -69
-53 -53 -75 41 -58 102 18 166 61 396 265 91 81 183 163 204 182 143 126 644
621 807 795 465 499 912 1079 1149 1489 146 255 280 558 280 635 0 47 -22 111
-51 153 -38 53 -158 95 -226 78z"/>
<path d="M7421 10704 c-161 -68 -318 -185 -423 -315 -74 -92 -72 -111 15 -129
60 -12 141 -48 210 -92 26 -17 50 -29 52 -27 2 2 44 43 94 91 76 73 106 95
188 134 113 53 128 65 155 118 41 80 6 191 -74 232 -16 9 -53 18 -82 20 -42 4
-65 -2 -135 -32z"/>
<path d="M5082 10392 c-12 -4 -37 -19 -56 -34 -118 -95 -71 -285 80 -319 86
-19 167 22 205 106 25 55 24 92 -7 153 -42 84 -128 120 -222 94z m121 -63 c54
-28 67 -50 67 -111 0 -45 -5 -63 -20 -78 -11 -11 -24 -20 -29 -20 -5 0 -11 -6
-13 -12 -3 -9 -26 -13 -66 -13 -58 0 -63 2 -97 39 -19 21 -36 48 -37 60 -2 34
3 70 11 76 4 3 10 12 13 21 15 39 123 63 171 38z"/>
<path d="M6775 10186 c-156 -43 -299 -173 -370 -336 -17 -37 -20 -67 -19 -185
0 -131 2 -146 32 -231 18 -51 32 -97 32 -103 0 -22 -44 11 -194 148 -83 75
-200 181 -260 235 -61 54 -151 136 -201 181 -177 162 -174 161 -212 79 -21
-47 -25 -66 -20 -113 10 -110 36 -141 327 -386 52 -44 104 -88 115 -99 126
-115 528 -434 714 -565 102 -72 208 -141 217 -141 2 0 68 -36 144 -80 77 -44
150 -84 163 -89 32 -12 57 4 57 37 0 24 -19 41 -148 132 -117 83 -174 131
-266 229 -169 177 -238 294 -287 484 -26 103 -29 268 -6 348 23 77 72 147 132
187 46 31 50 32 62 16 8 -11 13 -49 13 -98 0 -110 15 -192 55 -314 37 -111
126 -305 177 -387 169 -270 382 -556 532 -712 44 -47 59 -50 141 -29 72 19 70
35 -21 136 -322 360 -522 700 -564 962 -16 100 -9 258 14 292 25 40 20 68 -21
108 -45 43 -155 118 -173 118 -9 0 -11 22 -8 89 4 84 3 90 -16 95 -31 8 -96 5
-141 -8z"/>
<path d="M2610 9654 c-8 -1 -73 -7 -145 -14 -218 -19 -474 -64 -602 -106 -165
-54 -346 -157 -446 -253 -55 -52 -147 -162 -147 -175 0 -4 -10 -23 -23 -44
-70 -113 -137 -348 -137 -483 0 -183 81 -383 216 -529 73 -80 75 -89 48 -212
-13 -54 -17 -126 -17 -278 -1 -183 1 -214 22 -289 63 -234 194 -402 415 -532
122 -71 330 -140 466 -154 61 -7 68 -10 111 -56 58 -60 97 -70 162 -41 52 23
77 55 84 109 7 55 -17 106 -66 139 -34 22 -49 26 -86 21 -51 -5 -76 -23 -112
-81 l-25 -38 -54 7 c-99 12 -285 64 -367 103 -209 98 -319 199 -411 376 -30
58 -46 116 -32 116 2 0 31 -26 65 -59 66 -63 162 -119 256 -147 47 -15 94 -18
215 -18 200 0 260 10 665 110 228 57 231 58 380 58 136 0 159 -3 240 -28 105
-32 125 -47 125 -93 0 -43 21 -84 60 -117 26 -21 42 -26 87 -26 52 0 59 3 95
40 34 37 38 46 38 95 0 44 -5 59 -27 86 -46 55 -112 72 -167 44 -39 -21 -46
-20 -150 19 -137 51 -259 62 -451 41 -188 -20 -250 -32 -265 -51 -20 -23 -47
-16 -90 22 -66 60 -65 62 57 188 298 306 575 617 766 858 102 129 247 327 247
339 0 28 -39 -4 -135 -113 -158 -180 -345 -378 -369 -390 -25 -13 -32 -22 110
142 135 155 390 463 437 526 36 51 45 74 28 74 -4 0 -82 -78 -172 -172 -270
-286 -771 -782 -969 -958 -52 -47 -99 -89 -106 -95 -6 -5 -48 -44 -94 -85
-153 -136 -180 -163 -180 -172 0 -5 32 -39 72 -76 158 -147 157 -145 112 -162
-47 -18 -337 -51 -389 -45 -86 11 -206 44 -264 73 -200 98 -304 361 -260 657
6 42 19 85 28 96 15 19 18 19 53 5 114 -48 218 21 218 144 0 66 -28 115 -84
145 -62 34 -59 56 22 142 l39 42 48 -14 c60 -18 110 -7 147 32 53 57 60 99 29
162 -48 94 -160 106 -231 25 -26 -30 -30 -42 -30 -93 0 -42 -5 -62 -17 -72 -9
-8 -34 -39 -56 -69 -61 -83 -65 -84 -111 -35 -101 107 -151 323 -111 478 51
198 214 368 470 492 118 57 135 62 135 38 0 -10 -11 -37 -24 -60 -46 -80 -60
-141 -60 -253 1 -124 24 -206 83 -297 65 -100 179 -172 304 -194 84 -14 137
-8 208 24 99 45 149 122 149 232 0 115 -54 175 -158 175 -82 0 -128 -32 -171
-117 -11 -23 -25 -45 -31 -48 -16 -10 -94 54 -124 100 -38 57 -49 108 -44 206
5 98 31 155 95 208 50 42 199 105 308 132 50 12 96 27 104 35 8 7 17 34 22 61
4 26 11 62 14 80 6 25 3 33 -11 40 -11 5 -26 8 -34 7z m-737 -1101 c25 -23 23
-93 -4 -117 -21 -18 -40 -21 -92 -18 -39 3 -64 60 -46 104 22 54 98 70 142 31z
m1713 -1419 c19 -9 34 -22 34 -29 0 -7 7 -15 15 -19 23 -8 18 -45 -11 -83 -21
-28 -31 -33 -67 -33 -57 0 -87 34 -87 102 0 39 3 48 18 48 9 0 26 7 36 15 24
18 21 18 62 -1z m-1079 -436 c18 -7 33 -17 33 -24 0 -6 7 -14 15 -18 21 -8 20
-73 -2 -94 -20 -21 -61 -42 -80 -42 -8 0 -30 16 -50 35 -31 31 -35 38 -29 70
4 19 11 35 16 35 6 0 10 6 10 13 0 7 10 17 23 23 30 16 27 15 64 2z"/>
<path d="M7742 8950 c-99 -60 -94 -198 9 -254 55 -30 101 -16 164 50 60 62 74
65 203 38 243 -50 464 -181 596 -353 56 -73 108 -176 104 -207 -3 -23 -7 -21
-68 38 -218 212 -533 222 -1169 41 l-166 -48 -170 0 c-148 0 -179 3 -237 22
-125 41 -138 53 -138 122 0 100 -134 158 -217 95 -82 -62 -83 -150 -3 -218 45
-37 75 -42 137 -21 45 16 59 17 91 6 204 -69 312 -85 452 -70 47 6 129 14 182
18 70 6 106 15 131 30 48 29 60 27 113 -23 45 -43 45 -45 31 -73 -8 -16 -35
-46 -59 -68 -58 -53 -315 -320 -406 -421 -210 -235 -632 -764 -632 -793 0 -29
34 0 140 121 140 159 386 415 413 430 18 9 18 7 -3 -22 -13 -18 -49 -60 -79
-94 -208 -226 -541 -625 -541 -648 0 -5 5 -8 11 -8 6 0 218 209 472 464 385
386 511 508 731 711 6 6 40 35 76 65 36 30 85 74 110 97 25 23 57 51 73 63 15
12 27 29 27 39 0 10 -47 62 -105 115 -58 54 -105 101 -105 104 1 31 29 37 272
62 179 18 330 -8 433 -75 193 -124 279 -348 241 -623 -9 -62 -18 -118 -22
-124 -4 -6 -21 -7 -43 -4 -99 18 -106 18 -151 -7 -28 -15 -53 -38 -67 -63 -49
-84 -20 -152 99 -235 19 -14 21 -20 11 -40 -6 -13 -30 -45 -53 -71 -44 -51
-63 -56 -119 -37 -48 17 -114 -11 -148 -62 -69 -104 28 -243 146 -209 77 22
111 70 111 156 0 41 6 53 61 120 35 41 70 74 79 74 27 0 105 -111 129 -182 35
-107 45 -190 32 -273 -36 -244 -206 -434 -510 -572 -134 -60 -144 -57 -93 26
47 77 64 132 69 222 18 290 -142 505 -403 542 -166 24 -305 -59 -334 -200 -33
-156 64 -270 199 -233 58 15 109 63 123 116 7 24 18 46 26 49 33 13 113 -57
153 -135 20 -38 23 -60 24 -145 0 -119 -15 -157 -95 -228 -71 -64 -210 -127
-330 -151 -73 -15 -89 -26 -101 -70 -6 -22 -12 -61 -13 -86 l-1 -45 95 0 c117
1 260 18 455 56 502 98 808 330 928 704 42 131 51 184 50 300 0 130 -17 205
-73 323 -47 98 -82 150 -151 226 -58 63 -56 51 -24 226 24 129 26 375 2 487
-55 268 -188 447 -441 596 -127 74 -359 147 -467 147 -37 0 -47 6 -83 44 -23
24 -51 49 -63 55 -33 17 -84 13 -121 -9z m113 -58 c55 -49 50 -105 -12 -142
-39 -23 -58 -20 -91 11 -30 27 -30 94 0 126 26 28 74 30 103 5z m-1090 -433
c35 -13 65 -58 65 -97 -1 -54 -111 -82 -156 -39 -42 39 -31 111 20 133 38 16
33 16 71 3z m1750 -1439 c3 -5 15 -10 26 -10 16 0 19 -7 19 -49 0 -87 -60
-131 -125 -91 -53 33 -60 74 -19 127 20 26 32 33 59 33 19 0 37 -4 40 -10z"/>
<path d="M1593 8861 c-52 -33 -53 -109 -1 -145 43 -31 100 -13 127 41 17 33
14 50 -16 82 -37 40 -70 46 -110 22z m70 -53 c7 -23 -5 -48 -24 -48 -25 0 -35
26 -19 45 15 18 37 19 43 3z"/>
<path d="M5055 8524 c-205 -46 -348 -153 -406 -304 -30 -76 -37 -218 -15 -292
44 -152 153 -248 459 -404 285 -145 351 -198 392 -313 17 -50 20 -178 5 -232
-23 -83 -105 -165 -189 -189 -107 -32 -272 -20 -361 25 -80 41 -158 148 -176
243 l-6 32 -79 0 -79 0 0 -188 0 -188 113 -22 c458 -90 761 -54 929 112 135
133 174 384 88 562 -60 123 -187 224 -430 341 -188 91 -257 133 -317 193 -117
117 -127 312 -22 420 69 71 113 85 264 85 116 0 135 -3 178 -24 66 -32 120
-99 159 -192 l32 -79 73 0 73 0 -2 188 -3 187 -110 23 c-147 31 -462 40 -570
16z"/>
<path d="M7252 8018 c-46 -51 -32 -126 28 -147 38 -13 70 -2 99 36 62 78 -59
183 -127 111z m76 -40 c28 -28 3 -66 -33 -52 -15 6 -21 45 -8 57 10 11 28 8
41 -5z"/>
<path d="M8140 7824 c-105 -29 -200 -100 -520 -393 -217 -199 -422 -397 -650
-628 -254 -256 -294 -299 -495 -528 -38 -44 -82 -93 -97 -110 -47 -54 -282
-347 -366 -459 -111 -145 -377 -548 -441 -666 -68 -127 -171 -338 -207 -425
-38 -95 -45 -205 -16 -262 41 -79 130 -133 220 -133 66 0 156 59 189 124 56
107 22 226 -89 311 -71 54 -71 66 2 214 70 140 158 275 234 359 96 104 254
226 400 306 206 114 582 208 894 223 127 6 132 5 132 -14 0 -11 -32 -53 -74
-95 -132 -135 -324 -227 -623 -298 -55 -13 -68 -30 -33 -46 18 -8 9 -13 -52
-33 -242 -81 -428 -166 -428 -196 0 -21 18 -19 122 16 104 34 397 112 528 139
176 37 398 127 523 212 125 85 260 288 288 435 6 35 10 101 7 147 -4 71 -10
95 -39 153 -57 114 -220 257 -316 278 -42 8 -99 -18 -118 -56 -34 -65 -10
-124 73 -181 71 -49 81 -59 128 -121 53 -71 72 -123 53 -142 -9 -9 -64 -17
-154 -24 -480 -37 -605 -60 -837 -157 -61 -26 -88 -30 -88 -14 0 10 116 143
230 264 179 190 452 448 770 727 266 233 794 637 1115 854 187 126 185 123
133 155 -23 14 -51 20 -94 20 -68 0 -111 -18 -192 -82 -26 -21 -103 -81 -172
-135 -177 -138 -440 -355 -615 -508 -145 -126 -239 -205 -280 -235 -57 -42 69
91 253 267 280 270 379 360 642 583 186 158 199 192 60 154z"/>
<path d="M2917 7552 c-38 -39 -36 -84 3 -124 26 -25 36 -29 62 -24 80 16 106
101 47 150 -40 34 -78 33 -112 -2z m91 -48 c7 -12 4 -23 -7 -35 -19 -23 -41
-25 -41 -4 0 8 -4 15 -10 15 -14 0 -12 27 3 33 24 10 46 7 55 -9z"/>
<path d="M2852 7110 c-41 -10 -55 -22 -46 -41 3 -8 100 -97 216 -199 116 -102
238 -209 272 -239 151 -134 240 -234 293 -331 182 -336 159 -687 -53 -798 -33
-18 -41 1 -47 118 -18 306 -176 639 -520 1097 -119 157 -260 323 -290 339 -27
15 -151 -15 -155 -39 -2 -9 31 -54 76 -104 217 -243 359 -444 461 -658 86
-178 114 -287 113 -445 0 -119 -11 -170 -37 -170 -21 0 -76 78 -134 190 -59
114 -76 131 -135 137 -83 10 -156 -64 -143 -145 14 -81 175 -323 281 -419 174
-159 335 -206 516 -150 257 80 422 340 380 599 -7 46 -24 115 -37 153 -46 131
-42 141 29 78 45 -40 438 -397 597 -542 133 -122 155 -141 163 -141 17 0 57
70 67 118 14 65 0 130 -38 184 -14 20 -132 128 -261 239 -436 375 -476 407
-1138 900 -291 217 -379 280 -391 278 -3 -1 -21 -5 -39 -9z"/>
<path d="M8585 6715 c-47 -46 -22 -130 44 -148 31 -8 82 24 97 60 13 29 12 37
-1 63 -29 56 -98 68 -140 25z m87 -50 c13 -28 12 -30 -17 -39 -31 -9 -47 7
-39 37 8 35 40 36 56 2z"/>
<path d="M4022 5613 c-53 -84 -129 -243 -177 -373 -62 -167 -86 -392 -55 -520
17 -74 53 -143 84 -163 32 -21 95 -22 124 -1 27 19 52 65 52 96 0 12 -11 52
-24 88 -34 88 -56 205 -56 289 0 149 39 300 54 209 3 -18 15 -87 26 -153 89
-537 355 -898 738 -1001 104 -28 170 -9 209 61 28 49 29 84 3 135 -25 48 -62
75 -142 101 -251 83 -485 292 -598 535 -35 77 -66 172 -57 180 3 4 48 -36 100
-88 80 -82 106 -102 188 -142 52 -25 131 -56 177 -68 78 -20 85 -20 117 -5 47
22 70 61 70 118 0 39 -5 53 -30 79 -16 16 -47 35 -70 41 -59 16 -253 110 -337
164 -111 72 -248 214 -288 300 -18 38 -38 90 -45 114 -6 25 -16 46 -22 48 -6
2 -24 -18 -41 -44z"/>
<path d="M5114 5400 c-53 -8 -87 -30 -124 -82 -24 -32 -30 -52 -30 -90 0 -109
80 -188 193 -188 89 0 177 89 177 180 0 71 -67 162 -128 176 -15 3 -31 7 -37
8 -5 1 -29 -1 -51 -4z m90 -55 c8 -8 19 -15 25 -15 6 0 11 -6 11 -14 0 -8 7
-16 15 -20 23 -8 21 -129 -2 -156 -10 -11 -21 -20 -26 -20 -5 0 -15 -7 -23
-15 -10 -9 -34 -15 -63 -15 -39 0 -54 5 -78 28 -38 34 -66 96 -58 123 12 38
47 89 60 89 7 0 18 7 25 15 8 9 29 15 56 15 24 0 49 -6 58 -15z"/>
<path d="M2983 5281 c-124 -131 -148 -150 -272 -211 -44 -22 -93 -54 -110 -72
-60 -64 -66 -141 -16 -216 35 -53 84 -77 160 -77 140 0 430 191 562 368 49 67
47 91 -10 100 -53 8 -166 56 -223 93 -59 39 -68 41 -91 15z"/>
<path d="M2195 3390 c-169 -24 -301 -121 -340 -252 -8 -29 -15 -86 -15 -127 0
-63 5 -86 29 -136 48 -100 131 -168 331 -271 137 -70 231 -153 249 -219 14
-53 14 -138 -1 -189 -16 -52 -72 -108 -124 -124 -53 -16 -165 -15 -218 0 -62
19 -119 82 -145 161 l-23 67 -59 0 -60 0 3 -147 3 -148 75 -17 c41 -10 128
-23 193 -30 273 -28 453 39 532 199 24 50 29 73 33 163 3 90 1 113 -18 162
-40 107 -126 182 -335 292 -210 111 -265 174 -265 303 0 134 85 213 230 213
122 0 199 -58 237 -177 l17 -53 58 0 58 0 0 145 0 144 -37 10 c-117 30 -309
45 -408 31z"/>
<path d="M3735 3383 c-3 -10 -106 -281 -227 -603 -121 -322 -229 -601 -239
-621 -27 -55 -69 -100 -106 -115 -27 -12 -33 -20 -33 -44 l0 -30 225 0 225 0
0 29 c0 26 -5 31 -42 43 -57 19 -82 55 -81 117 1 51 8 78 50 199 l26 72 232 0
232 0 31 -113 c39 -140 42 -214 10 -244 -13 -12 -39 -25 -58 -30 -30 -8 -35
-14 -38 -41 l-3 -32 245 0 246 0 0 28 c0 23 -7 31 -40 46 -76 33 -63 -1 -343
916 l-132 435 -86 3 c-75 2 -87 0 -94 -15z m144 -539 c49 -164 87 -302 84
-306 -7 -13 -393 -10 -393 2 0 6 41 126 91 268 50 141 98 276 106 300 9 24 17
41 19 39 3 -2 44 -139 93 -303z"/>
<path d="M4950 3345 c0 -19 5 -35 11 -35 29 0 78 -34 91 -63 18 -45 19 -1108
1 -1150 -8 -18 -29 -35 -58 -48 -39 -17 -45 -24 -45 -49 l0 -30 231 0 230 0
-3 32 c-3 26 -9 33 -42 45 -87 30 -96 62 -96 364 l0 221 131 -4 131 -3 28 -31
c15 -17 33 -55 41 -83 l13 -51 53 0 53 0 0 220 0 220 -53 0 -54 0 -16 -58 c-9
-34 -27 -67 -42 -82 -25 -24 -32 -25 -153 -25 l-127 0 0 270 0 270 139 3 c167
3 240 -8 277 -44 23 -22 61 -94 82 -156 5 -14 18 -18 62 -18 l55 0 0 160 0
160 -470 0 -470 0 0 -35z"/>
<path d="M6462 3348 c2 -25 9 -33 35 -42 18 -6 43 -21 55 -34 l23 -23 3 -559
c3 -638 5 -616 -72 -645 -40 -15 -46 -22 -46 -46 l0 -29 226 0 225 0 -3 32
c-2 25 -9 33 -35 42 -18 6 -43 21 -55 34 l-23 23 -3 544 c-2 369 1 558 8 586
11 41 55 79 93 79 13 0 17 8 17 35 l0 35 -226 0 -225 0 3 -32z"/>
<path d="M7532 3348 c2 -26 9 -33 37 -43 18 -6 44 -23 57 -39 l24 -27 0 -559
c0 -352 -4 -569 -10 -585 -7 -19 -26 -33 -60 -48 -43 -18 -50 -25 -50 -49 l0
-28 226 0 225 0 -3 32 c-2 26 -9 33 -37 43 -19 6 -44 24 -55 39 -20 25 -21 44
-24 258 l-4 230 107 -4 107 -3 37 -41 c20 -23 87 -137 150 -255 63 -118 127
-233 143 -256 l29 -43 149 0 150 0 0 28 c0 23 -8 31 -53 52 -65 31 -97 73
-202 265 -92 169 -133 226 -193 272 l-43 32 62 32 c81 41 158 115 195 186 27
55 29 65 29 178 0 105 -3 126 -23 166 -30 61 -84 113 -148 145 -90 44 -179 53
-517 54 l-308 0 3 -32z m541 -78 c164 -24 237 -112 237 -286 0 -133 -51 -229
-148 -275 -40 -20 -67 -24 -174 -27 l-128 -4 0 295 0 296 48 4 c26 2 58 4 72
5 14 1 56 -3 93 -8z"/>
<path d="M4520 1401 c-77 -25 -137 -80 -174 -160 -18 -39 -21 -65 -21 -176 0
-115 3 -136 24 -182 28 -62 92 -125 147 -144 21 -7 75 -13 120 -13 135 0 215
52 273 174 24 50 26 66 26 180 0 109 -3 131 -23 175 -50 109 -114 148 -252
152 -52 1 -106 -1 -120 -6z m170 -63 c59 -31 87 -86 102 -204 19 -155 -16
-280 -92 -332 -29 -20 -44 -23 -88 -20 -31 3 -64 13 -80 24 -61 45 -98 174
-89 309 7 103 21 147 59 190 49 57 117 68 188 33z"/>
<path d="M3480 1385 c0 -8 11 -17 25 -21 14 -3 30 -14 35 -24 6 -11 10 -128
10 -274 0 -243 -1 -257 -20 -276 -11 -11 -27 -20 -35 -20 -8 0 -15 -9 -15 -20
0 -19 7 -20 130 -20 118 0 130 2 130 18 0 9 -10 22 -22 27 -38 17 -48 52 -48
173 l0 112 145 0 145 0 0 -125 c0 -112 -2 -127 -20 -145 -11 -11 -27 -20 -35
-20 -8 0 -15 -9 -15 -20 0 -19 7 -20 130 -20 123 0 130 1 130 20 0 11 -6 20
-14 20 -8 0 -24 12 -35 26 -20 25 -21 39 -21 265 0 131 4 249 10 263 5 15 21
31 35 38 14 6 25 17 25 25 0 10 -28 13 -130 13 -108 0 -130 -2 -130 -15 0 -8
11 -17 25 -21 38 -9 45 -32 45 -148 l0 -106 -145 0 -145 0 0 94 c0 109 9 142
45 158 14 6 25 17 25 25 0 10 -28 13 -130 13 -108 0 -130 -2 -130 -15z"/>
<path d="M5040 1310 l0 -90 33 0 c31 0 35 4 46 39 17 58 61 91 122 91 l49 0 0
-269 0 -270 -26 -20 c-15 -12 -33 -21 -40 -21 -8 0 -14 -9 -14 -20 0 -19 7
-20 140 -20 133 0 140 1 140 20 0 11 -7 20 -15 20 -9 0 -27 11 -40 25 l-25 24
0 266 0 265 49 0 c61 0 105 -33 122 -91 11 -35 15 -39 46 -39 l33 0 0 90 0 90
-310 0 -310 0 0 -90z"/>
<path d="M5800 1388 c0 -7 13 -20 29 -29 38 -22 41 -44 41 -289 0 -245 -3
-267 -41 -289 -16 -9 -29 -24 -29 -33 0 -17 19 -18 265 -18 l265 0 0 28 c0 15
3 57 7 95 l6 67 -35 0 c-32 0 -36 -3 -47 -41 -7 -23 -23 -52 -36 -65 -22 -22
-32 -24 -135 -24 l-110 0 0 130 0 131 72 -3 c70 -3 74 -4 93 -35 16 -25 27
-32 53 -33 l32 0 0 100 0 100 -35 0 c-25 0 -38 -5 -42 -17 -15 -44 -34 -53
-105 -53 l-68 0 0 120 0 120 98 0 c113 0 140 -10 165 -63 16 -32 23 -37 53
-37 l34 0 0 75 0 75 -265 0 c-205 0 -265 -3 -265 -12z"/>
<path d="M6500 1387 c0 -8 11 -19 25 -25 14 -7 30 -23 35 -38 6 -14 10 -133
10 -265 l0 -240 -25 -24 c-13 -14 -29 -25 -35 -25 -5 0 -10 -9 -10 -20 0 -19
7 -20 244 -20 l243 0 7 61 c3 34 6 82 6 106 0 43 -1 44 -31 41 -27 -3 -32 -9
-49 -58 -27 -79 -45 -90 -146 -90 l-84 0 0 266 c0 153 4 273 10 284 5 10 21
21 35 24 14 4 25 13 25 21 0 13 -22 15 -130 15 -102 0 -130 -3 -130 -13z"/>
</g>
</svg>
